<svg width="87" height="122" viewBox="0 0 87 122" fill="none" xmlns="http://www.w3.org/2000/svg">
<path fill-rule="evenodd" clip-rule="evenodd" d="M26.4939 6.08247C26.713 5.99417 26.9478 5.94873 27.1849 5.94873H65.7171C65.9542 5.94873 66.1889 5.99417 66.408 6.08247L80.0312 11.5735C80.4736 11.7519 80.825 12.0939 81.0083 12.5244L86.6512 25.781C86.8344 26.2115 86.8344 26.6952 86.6512 27.1257L81.0083 40.3823C80.825 40.8128 80.4736 41.1548 80.0312 41.3331L70.435 45.201L80.0312 49.0689C80.4736 49.2473 80.825 49.5893 81.0083 50.0198L86.6512 63.2764C86.8344 63.7069 86.8344 64.1906 86.6512 64.6211L81.0083 77.8777C80.825 78.3082 80.4736 78.6502 80.0312 78.8285L66.408 84.3196C65.9656 84.4979 65.4685 84.4979 65.0261 84.3196L51.4029 78.8285C50.9605 78.6502 50.6091 78.3082 50.4258 77.8777L48.2564 72.7813V82.4475C48.2564 82.4893 48.2549 82.5308 48.252 82.572C48.2549 82.6131 48.2564 82.6546 48.2564 82.6964V101.444C48.2564 101.675 48.2097 101.903 48.119 102.116L42.4761 115.373C42.2929 115.804 41.9414 116.146 41.499 116.324L27.8758 121.815C27.4334 121.993 26.9363 121.993 26.4939 121.815L12.8707 116.324C12.4284 116.146 12.0769 115.804 11.8936 115.373L6.25072 102.116C6.06747 101.686 6.06747 101.202 6.25072 100.772L11.8936 87.5152C12.0769 87.0847 12.4284 86.7426 12.8707 86.5643L22.7757 82.572L12.8707 78.5796C12.4284 78.4013 12.0769 78.0592 11.8936 77.6287L6.25072 64.3721C6.06747 63.9416 6.06747 63.4579 6.25072 63.0274L11.8936 49.7708C12.0769 49.3403 12.4284 48.9983 12.8707 48.82L22.1581 45.0766L12.8707 41.3331C12.4284 41.1548 12.0769 40.8128 11.8936 40.3823L6.25072 27.1257C6.06747 26.6952 6.06747 26.2115 6.25072 25.781L11.8936 12.5244C12.0769 12.0939 12.4284 11.7519 12.8707 11.5735L26.4939 6.08247ZM26.9602 46.9443L16.749 51.0601L44.6455 78.2059V46.9579H27.1849C27.1096 46.9579 27.0346 46.9534 26.9602 46.9443ZM48.2564 46.9579V55.1162L50.4258 50.0198C50.6091 49.5893 50.9605 49.2473 51.4029 49.0689L56.6403 46.9579H48.2564ZM65.3579 43.4441H48.2564V11.9472L76.1529 39.093L65.3579 43.4441ZM78.7062 36.6084L83.0289 26.4533L77.9584 14.5414L65.3579 9.46255H50.8098L78.7062 36.6084ZM44.6455 9.46255H27.544L16.749 13.8137L44.6455 40.9595V9.46255ZM41.8363 43.1952H27.1849C27.1096 43.1952 27.0346 43.1998 26.9602 43.2088L14.9435 38.3653L9.87302 26.4533L14.1957 16.2983L41.8363 43.1952ZM65.7171 47.1027L55.2812 51.3091L78.7062 74.1038L83.0289 63.9487L77.9584 52.0368L65.7171 47.1027ZM76.1529 76.5884L52.7279 53.7937L48.4052 63.9487L53.4757 75.8607L65.7171 80.7948L76.1529 76.5884ZM42.0921 80.6906L14.1957 53.5447L9.87302 63.6998L14.9435 75.6117L27.544 80.6906H42.0921ZM27.544 84.4533H44.6455V101.095L40.174 111.599L16.749 88.8044L27.544 84.4533ZM14.1957 91.2891L9.87302 101.444L14.9435 113.356L27.1849 118.29L37.6207 114.084L14.1957 91.2891Z" fill="#F5F5FF"/>
<path fill-rule="evenodd" clip-rule="evenodd" d="M20.3807 0.133737C20.5997 0.0454437 20.8345 0 21.0716 0H59.6038C59.8409 0 60.0757 0.0454437 60.2947 0.133737L73.9179 5.62481C74.3603 5.80313 74.7118 6.14515 74.895 6.57564L80.5379 19.8323C80.7212 20.2628 80.7212 20.7465 80.5379 21.1769L74.895 34.4336C74.7118 34.8641 74.3603 35.2061 73.9179 35.3844L64.3217 39.2523L73.9179 43.1202C74.3603 43.2985 74.7118 43.6405 74.895 44.071L80.5379 57.3277C80.7212 57.7582 80.7212 58.2418 80.5379 58.6723L74.895 71.929C74.7118 72.3595 74.3603 72.7015 73.9179 72.8798L60.2947 78.3709C59.8523 78.5492 59.3552 78.5492 58.9128 78.3709L45.2897 72.8798C44.8473 72.7015 44.4958 72.3595 44.3125 71.929L42.1432 66.8326V76.4987C42.1432 76.5406 42.1417 76.5821 42.1387 76.6232C42.1417 76.6643 42.1432 76.7058 42.1432 76.7477V95.4954C42.1432 95.7261 42.0965 95.9546 42.0057 96.1677L36.3628 109.424C36.1796 109.855 35.8281 110.197 35.3857 110.375L21.7625 115.866C21.3201 116.045 20.823 116.045 20.3807 115.866L6.75747 110.375C6.31507 110.197 5.96359 109.855 5.78034 109.424L0.137435 96.1677C-0.0458115 95.7372 -0.0458115 95.2536 0.137435 94.8231L5.78034 81.5664C5.96359 81.1359 6.31507 80.7939 6.75747 80.6156L16.6624 76.6232L6.75747 72.6308C6.31507 72.4525 5.96359 72.1105 5.78034 71.68L0.137435 58.4234C-0.0458115 57.9929 -0.0458115 57.5092 0.137435 57.0787L5.78034 43.8221C5.96359 43.3916 6.31507 43.0496 6.75747 42.8713L16.0448 39.1278L6.75747 35.3844C6.31507 35.2061 5.96359 34.8641 5.78034 34.4336L0.137435 21.1769C-0.0458115 20.7465 -0.0458115 20.2628 0.137435 19.8323L5.78034 6.57564C5.96359 6.14515 6.31507 5.80313 6.75747 5.62481L20.3807 0.133737ZM20.8469 40.9956L10.6357 45.1114L38.5322 72.2572V41.0092H21.0716C20.9963 41.0092 20.9213 41.0046 20.8469 40.9956ZM42.1432 41.0092V49.1674L44.3125 44.071C44.4958 43.6405 44.8473 43.2985 45.2897 43.1202L50.527 41.0092H42.1432ZM59.2446 37.4954H42.1432V5.99846L70.0396 33.1443L59.2446 37.4954ZM72.593 30.6596L76.9156 20.5046L71.8451 8.59266L59.2446 3.51382H44.6965L72.593 30.6596ZM38.5322 3.51382H21.4307L10.6357 7.86492L38.5322 35.0107V3.51382ZM35.723 37.2464H21.0716C20.9963 37.2464 20.9213 37.251 20.8469 37.2601L8.83026 32.4165L3.75973 20.5046L8.0824 10.3496L35.723 37.2464ZM59.6038 41.154L49.1679 45.3603L72.593 68.155L76.9156 58L71.8451 46.0881L59.6038 41.154ZM70.0396 70.6397L46.6146 47.845L42.2919 58L47.3624 69.9119L59.6038 74.846L70.0396 70.6397ZM35.9788 74.7418L8.0824 47.596L3.75974 57.751L8.83026 69.663L21.4307 74.7418H35.9788ZM21.4307 78.5046H38.5322V95.1459L34.0608 105.65L10.6357 82.8557L21.4307 78.5046ZM8.0824 85.3404L3.75974 95.4954L8.83026 107.407L21.0716 112.341L31.5074 108.135L8.0824 85.3404Z" fill="#3928A6"/>
</svg>
