<svg width="21" height="22" viewBox="0 0 21 22" fill="none" xmlns="http://www.w3.org/2000/svg">
<path d="M3.17411 18.0585V8.76381H6.26786V18.0585H3.17411ZM6.46875 5.89774C6.46875 6.78167 5.79911 7.50488 4.71429 7.50488H4.70089C3.65625 7.50488 2.98661 6.78167 2.98661 5.89774C2.98661 4.98703 3.68304 4.2906 4.74107 4.2906C5.79911 4.2906 6.45536 4.98703 6.46875 5.89774ZM14.3036 18.0585V13.0897C14.3036 11.8308 13.8616 10.987 12.75 10.987C11.8929 10.987 11.3839 11.5629 11.1563 12.112C11.0759 12.3129 11.0625 12.5942 11.0625 12.862V18.0585H7.96875C8.00893 9.63435 7.96875 8.76381 7.96875 8.76381H11.0625V10.1165H11.0357C11.4375 9.47363 12.1741 8.54953 13.8348 8.54953C15.8705 8.54953 17.3973 9.87542 17.3973 12.7281V18.0585H14.3036ZM20.5714 4.69238C20.5714 2.56292 18.8438 0.835239 16.7143 0.835239H3.85714C1.72768 0.835239 0 2.56292 0 4.69238V17.5495C0 19.679 1.72768 21.4067 3.85714 21.4067H16.7143C18.8438 21.4067 20.5714 19.679 20.5714 17.5495V4.69238Z" fill="#EBEBEB"/>
</svg>
