<svg width="24" height="21" viewBox="0 0 24 21" fill="none" xmlns="http://www.w3.org/2000/svg">
<path d="M21.5156 5.81738C22.4531 5.11426 23.2969 4.27051 23.9531 3.28613C23.1094 3.66113 22.125 3.94238 21.1406 4.03613C22.1719 3.42676 22.9219 2.48926 23.2969 1.31738C22.3594 1.87988 21.2812 2.30176 20.2031 2.53613C19.2656 1.55176 18 0.989258 16.5938 0.989258C13.875 0.989258 11.6719 3.19238 11.6719 5.91113C11.6719 6.28613 11.7188 6.66113 11.8125 7.03613C7.73438 6.80176 4.07812 4.83301 1.64062 1.87988C1.21875 2.58301 0.984375 3.42676 0.984375 4.36426C0.984375 6.05176 1.82812 7.55176 3.1875 8.44238C2.39062 8.39551 1.59375 8.20801 0.9375 7.83301V7.87988C0.9375 10.2705 2.625 12.2393 4.875 12.708C4.5 12.8018 4.03125 12.8955 3.60938 12.8955C3.28125 12.8955 3 12.8486 2.67188 12.8018C3.28125 14.7705 5.10938 16.1768 7.26562 16.2236C5.57812 17.5361 3.46875 18.333 1.17188 18.333C0.75 18.333 0.375 18.2861 0 18.2393C2.15625 19.6455 4.73438 20.4424 7.54688 20.4424C16.5938 20.4424 21.5156 12.9893 21.5156 6.47363C21.5156 6.23926 21.5156 6.05176 21.5156 5.81738Z" fill="#2B2B2B"/>
</svg>
